<?xml version="1.0" encoding="UTF-8"?>
<svg xmlns="http://www.w3.org/2000/svg" viewBox="0 0 64 64">
  <defs>
    <style>
      .line{stroke:#000;stroke-width:3;stroke-linecap:round;fill:none}
    </style>
  </defs>
  <!-- background -->
  <rect width="64" height="64" fill="#fff"/>
  <!-- outer ring -->
  <circle cx="32" cy="32" r="28" fill="none" stroke="#000" stroke-width="4"/>
  <!-- hour ticks -->
  <g transform="translate(32,32)" stroke="#000" stroke-width="3" stroke-linecap="round">
    <!-- 12 ticks -->
    <line x1="0" y1="-24" x2="0" y2="-20"/>
    <g transform="rotate(30)"><line x1="0" y1="-24" x2="0" y2="-20"/></g>
    <g transform="rotate(60)"><line x1="0" y1="-24" x2="0" y2="-20"/></g>
    <g transform="rotate(90)"><line x1="0" y1="-24" x2="0" y2="-20"/></g>
    <g transform="rotate(120)"><line x1="0" y1="-24" x2="0" y2="-20"/></g>
    <g transform="rotate(150)"><line x1="0" y1="-24" x2="0" y2="-20"/></g>
    <g transform="rotate(180)"><line x1="0" y1="-24" x2="0" y2="-20"/></g>
    <g transform="rotate(210)"><line x1="0" y1="-24" x2="0" y2="-20"/></g>
    <g transform="rotate(240)"><line x1="0" y1="-24" x2="0" y2="-20"/></g>
    <g transform="rotate(270)"><line x1="0" y1="-24" x2="0" y2="-20"/></g>
    <g transform="rotate(300)"><line x1="0" y1="-24" x2="0" y2="-20"/></g>
    <g transform="rotate(330)"><line x1="0" y1="-24" x2="0" y2="-20"/></g>
  </g>
  <!-- hands: 7:30 (hour at 7.5) -->
  <g transform="translate(32,32)">
    <!-- hour hand (~225 + 15 = 240 degrees from 12 o'clock) -->
    <g transform="rotate(240)"><line class="line" x1="0" y1="4" x2="0" y2="-12"/></g>
    <!-- minute hand at 30 min (180 degrees) -->
    <g transform="rotate(180)"><line class="line" x1="0" y1="6" x2="0" y2="-20"/></g>
    <!-- center hub -->
    <circle cx="0" cy="0" r="2.5" fill="#000"/>
  </g>
</svg>